<svg width="652" height="675" viewBox="0 0 652 675" fill="none" xmlns="http://www.w3.org/2000/svg">
<g clip-path="url(#clip0_9_28)">
<path d="M263.873 89.5H10.5972C4.74445 89.5 -0.00012207 94.2649 -0.00012207 100.143V285.857C-0.00012207 291.735 4.74445 296.5 10.5972 296.5H263.873C269.725 296.5 274.47 291.735 274.47 285.857V100.143C274.47 94.2649 269.725 89.5 263.873 89.5Z" fill="#FBF6F1"/>
<path d="M41.2685 280.395C27.5483 280.395 16.426 269.11 16.426 255.189C16.426 241.268 27.5483 229.983 41.2685 229.983C54.9886 229.983 66.1109 241.268 66.1109 255.189C66.1109 269.11 54.9886 280.395 41.2685 280.395ZM41.3227 255.083C43.1559 255.083 44.642 253.595 44.642 251.759C44.642 249.923 43.1559 248.434 41.3227 248.434C39.4896 248.434 38.0035 249.923 38.0035 251.759C38.0035 253.595 39.4896 255.083 41.3227 255.083ZM41.3227 256.746C38.0001 256.746 35.3066 259.443 35.3066 262.771H47.3389C47.3389 259.443 44.6454 256.746 41.3227 256.746Z" fill="#EEE2D8"/>
<path d="M16.4257 134.203C16.4257 133.025 17.3707 132.071 18.5445 132.071H193.947C195.117 132.071 196.065 133.024 196.065 134.203V210.428C196.065 211.605 195.12 212.56 193.947 212.56H18.5445C17.3743 212.56 16.4257 211.607 16.4257 210.428V134.203ZM82.8714 250.494H222.088C224.254 250.494 226.01 252.257 226.01 254.432V256.558C226.01 258.733 224.254 260.496 222.088 260.496H82.8714C80.7056 260.496 78.9498 258.733 78.9498 256.558V254.432C78.9498 252.257 80.7056 250.494 82.8714 250.494ZM82.8714 266.748H247.013C249.179 266.748 250.935 268.511 250.935 270.686V272.812C250.935 274.987 249.179 276.75 247.013 276.75H82.8714C80.7056 276.75 78.9498 274.987 78.9498 272.812V270.686C78.9498 268.511 80.7056 266.748 82.8714 266.748ZM82.8714 234.24H187.192C189.358 234.24 191.114 236.004 191.114 238.179V240.304C191.114 242.479 189.358 244.243 187.192 244.243H82.8714C80.7056 244.243 78.9498 242.479 78.9498 240.304V238.179C78.9498 236.004 80.7056 234.24 82.8714 234.24ZM-0.00012207 100.145C-0.00012207 94.2659 4.74405 89.5 10.6012 89.5H264.399C270.254 89.5 275 94.2664 275 100.145V112.914H-0.00012207V100.145Z" fill="#EEE2D8"/>
<path d="M217.292 194.953H249.689C251.507 194.953 253.079 195.323 254.374 196.019C255.67 196.714 256.686 197.735 257.379 199.036C258.071 200.337 258.44 201.916 258.44 203.742V203.77C258.44 205.596 258.071 207.175 257.379 208.476C256.686 209.777 255.67 210.798 254.374 211.493C253.079 212.189 251.507 212.559 249.689 212.559H217.292C215.474 212.559 213.902 212.189 212.606 211.493C211.311 210.798 210.295 209.777 209.602 208.476C208.909 207.175 208.54 205.596 208.54 203.77V203.742C208.54 201.916 208.909 200.337 209.602 199.036C210.295 197.735 211.311 196.714 212.606 196.019C213.902 195.323 215.474 194.953 217.292 194.953Z" fill="#EEE2D8"/>
<path d="M15.6302 106.528C18.4102 106.528 20.6639 104.265 20.6639 101.473C20.6639 98.6808 18.4102 96.4175 15.6302 96.4175C12.8501 96.4175 10.5964 98.6808 10.5964 101.473C10.5964 104.265 12.8501 106.528 15.6302 106.528Z" fill="#F74930"/>
<path d="M32.0564 106.528C34.8364 106.528 37.0901 104.265 37.0901 101.473C37.0901 98.6808 34.8364 96.4175 32.0564 96.4175C29.2763 96.4175 27.0227 98.6808 27.0227 101.473C27.0227 104.265 29.2763 106.528 32.0564 106.528Z" fill="black"/>
<path d="M49.0128 106.528C51.7928 106.528 54.0465 104.265 54.0465 101.473C54.0465 98.6808 51.7928 96.4175 49.0128 96.4175C46.2327 96.4175 43.9791 98.6808 43.9791 101.473C43.9791 104.265 46.2327 106.528 49.0128 106.528Z" fill="#00A76F"/>
</g>
<path d="M601.761 382.737H392.149C383.918 382.737 377.196 376.66 377.196 369.219V244.394C377.196 236.953 383.918 230.876 392.149 230.876H601.761C609.992 230.876 616.714 236.953 616.714 244.394V369.157C616.714 376.66 609.992 382.737 601.761 382.737Z" fill="#FBF6F1"/>
<path d="M377.265 230.058C377.265 222.5 383.408 216.374 390.984 216.374H602.926C610.503 216.374 616.645 222.504 616.645 230.058V245.788H377.265V230.058Z" fill="#EEE2D8"/>
<path d="M414.132 301.197H440.54C442.718 301.197 444.484 302.958 444.484 305.13C444.484 307.302 442.718 309.063 440.54 309.063H414.132C411.954 309.063 410.188 307.302 410.188 305.13C410.188 302.958 411.954 301.197 414.132 301.197ZM414.132 344.976H440.54C442.718 344.976 444.484 346.737 444.484 348.91C444.484 351.082 442.718 352.843 440.54 352.843H414.132C411.954 352.843 410.188 351.082 410.188 348.91C410.188 346.737 411.954 344.976 414.132 344.976ZM454.601 301.197H481.008C483.186 301.197 484.952 302.958 484.952 305.13C484.952 307.302 483.186 309.063 481.008 309.063H454.601C452.423 309.063 450.657 307.302 450.657 305.13C450.657 302.958 452.423 301.197 454.601 301.197ZM454.601 344.976H481.008C483.186 344.976 484.952 346.737 484.952 348.91C484.952 351.082 483.186 352.843 481.008 352.843H454.601C452.423 352.843 450.657 351.082 450.657 348.91C450.657 346.737 452.423 344.976 454.601 344.976ZM495.069 301.197H521.476C523.654 301.197 525.42 302.958 525.42 305.13C525.42 307.302 523.654 309.063 521.476 309.063H495.069C492.891 309.063 491.125 307.302 491.125 305.13C491.125 302.958 492.891 301.197 495.069 301.197ZM495.069 344.976H521.476C523.654 344.976 525.42 346.737 525.42 348.91C525.42 351.082 523.654 352.843 521.476 352.843H495.069C492.891 352.843 491.125 351.082 491.125 348.91C491.125 346.737 492.891 344.976 495.069 344.976ZM414.132 279.307H463.175C465.353 279.307 467.118 281.068 467.118 283.24C467.118 285.413 465.353 287.174 463.175 287.174H414.132C411.954 287.174 410.188 285.413 410.188 283.24C410.188 281.068 411.954 279.307 414.132 279.307ZM525.249 279.307H580.464C582.642 279.307 584.408 281.068 584.408 283.24C584.408 285.413 582.642 287.174 580.464 287.174H525.249C523.071 287.174 521.305 285.413 521.305 283.24C521.305 281.068 523.071 279.307 525.249 279.307ZM525.249 323.087H580.464C582.642 323.087 584.408 324.848 584.408 327.02C584.408 329.192 582.642 330.953 580.464 330.953H525.249C523.071 330.953 521.305 329.192 521.305 327.02C521.305 324.848 523.071 323.087 525.249 323.087ZM477.236 323.087H487.181C489.359 323.087 491.125 324.848 491.125 327.02C491.125 329.192 489.359 330.953 487.181 330.953H477.236C475.057 330.953 473.292 329.192 473.292 327.02C473.292 324.848 475.057 323.087 477.236 323.087ZM501.242 279.307H511.188C513.366 279.307 515.132 281.068 515.132 283.24C515.132 285.413 513.366 287.174 511.188 287.174H501.242C499.064 287.174 497.298 285.413 497.298 283.24C497.298 281.068 499.064 279.307 501.242 279.307ZM535.537 301.197H580.464C582.642 301.197 584.408 302.958 584.408 305.13C584.408 307.302 582.642 309.063 580.464 309.063H535.537C533.359 309.063 531.593 307.302 531.593 305.13C531.593 302.958 533.359 301.197 535.537 301.197Z" fill="#EEE2D8"/>
<path d="M414.132 323.086H463.175C465.353 323.086 467.118 324.847 467.118 327.02C467.118 329.192 465.353 330.953 463.175 330.953H414.132C411.954 330.953 410.188 329.192 410.188 327.02C410.188 324.847 411.954 323.086 414.132 323.086ZM501.242 323.086H511.188C513.366 323.086 515.132 324.847 515.132 327.02C515.132 329.192 513.366 330.953 511.188 330.953H501.242C499.064 330.953 497.298 329.192 497.298 327.02C497.298 324.847 499.064 323.086 501.242 323.086Z" fill="#737EF2"/>
<path d="M477.235 279.307H487.181C489.359 279.307 491.125 281.068 491.125 283.24C491.125 285.413 489.359 287.174 487.181 287.174H477.235C475.057 287.174 473.292 285.413 473.292 283.24C473.292 281.068 475.057 279.307 477.235 279.307ZM535.537 344.976H580.464C582.642 344.976 584.408 346.737 584.408 348.91C584.408 351.082 582.642 352.843 580.464 352.843H535.537C533.359 352.843 531.593 351.082 531.593 348.91C531.593 346.737 533.359 344.976 535.537 344.976Z" fill="black"/>
<path d="M602.015 289.393L566.801 266.226C566.331 266.56 566.331 266.56 565.908 266.943L579.072 307.402C579.072 307.402 584.244 306.685 588.24 304.392L594.21 312.226C596.572 310.885 598.241 309.832 599.216 309.066C600.191 308.301 601.422 307.077 602.908 305.395L596.937 297.514C598.63 294.791 600.322 292.068 602.015 289.393Z" fill="black"/>
<path d="M409.26 540.17H451.927C453.221 540.17 454.354 539.02 454.354 537.641V537.353C454.354 535.974 453.221 534.825 451.819 534.825H412.281C388.332 534.825 364.383 534.825 340.488 534.825H303.809C302.514 534.825 301.382 535.974 301.382 537.353V537.641C301.382 539.02 302.461 540.17 303.809 540.17H355.861L341.513 568.217C331.318 588.218 321.124 608.162 310.875 628.163L293.992 661.153C293.399 662.302 293.884 663.797 295.017 664.486L295.233 664.601C296.365 665.233 297.822 664.889 298.361 663.797L361.524 540.17H403.597L466.76 663.797C467.299 664.889 468.756 665.291 469.888 664.601L470.104 664.486C471.237 663.797 471.722 662.302 471.129 661.153L454.246 628.163C444.051 608.162 433.857 588.218 423.608 568.217L409.26 540.17ZM454.192 517.647V484.229C454.192 458.743 454.192 433.315 454.192 407.886V377.518C454.192 372.756 450.57 368.897 446.101 368.897H358.072C353.604 368.897 349.981 372.756 349.981 377.518V517.746C349.981 522.507 353.604 526.367 358.072 526.367C358.075 526.367 358.078 526.367 358.081 526.367L446.11 526.268C450.575 526.263 454.192 522.405 454.192 517.647Z" fill="#8C837C"/>
<path d="M309.545 515.039C319.816 514.668 327.925 506.04 327.657 495.765C327.39 485.491 318.846 477.462 308.575 477.832L231.889 480.594C221.618 480.964 213.509 489.593 213.777 499.868C214.045 510.142 222.588 518.171 232.859 517.801L309.545 515.039Z" fill="#3A3A3A"/>
<path d="M328.1 495.749C328.375 506.268 320.072 515.103 309.557 515.481L232.871 518.244C222.355 518.623 213.608 510.403 213.334 499.884C213.059 489.365 221.362 480.53 231.878 480.151L308.563 477.389C319.079 477.01 327.826 485.23 328.1 495.749Z" stroke="#3A3A3A" stroke-width="0.886177"/>
<path d="M287.531 632.416C283.061 624.196 286.102 613.91 294.322 609.441C302.391 605.054 312.486 607.895 317.082 615.846L328.42 635.462C334.558 646.081 327.954 659.533 315.798 661.171C308.71 662.126 301.769 658.605 298.352 652.321L287.531 632.416Z" fill="#FDBA90" stroke="#FDBA90" stroke-width="0.886177"/>
<path d="M336.486 642.471C335.911 641.221 334.665 640.416 333.289 640.406L288.992 640.102C287.674 640.093 286.46 640.815 285.84 641.978L281.41 650.279C281.121 650.822 280.695 651.28 280.175 651.608L266.053 660.524C263.058 662.414 264.382 667.044 267.924 667.066L342.44 667.518C345.034 667.534 346.766 664.85 345.683 662.494L336.486 642.471Z" fill="#662D03"/>
<line y1="-0.221544" x2="37.7126" y2="-0.221544" transform="matrix(-0.00686637 -0.999976 -0.999976 0.00686651 302.72 642.408)" stroke="#00F9EA" stroke-opacity="0.28" stroke-width="0.443088" stroke-dasharray="0.89 0.89"/>
<line y1="-0.221544" x2="36.5574" y2="-0.221544" transform="matrix(-0.999976 0.00686652 0.00686652 0.999976 320.869 623.427)" stroke="#00F9EA" stroke-opacity="0.28" stroke-width="0.443088" stroke-dasharray="0.89 0.89"/>
<rect x="-0.220018" y="0.22306" width="37.2695" height="37.191" rx="18.5955" transform="matrix(-0.999976 0.00686652 0.00686652 0.999976 321.454 604.565)" stroke="#00F9EA" stroke-opacity="0.28" stroke-width="0.443088"/>
<path d="M251.765 491.475C246.454 481.884 234.391 478.387 224.773 483.65C215.229 488.873 211.64 500.788 216.712 510.413L279.09 628.796L327.814 628.796L251.765 491.475Z" fill="#3A3A3A"/>
<path d="M279.09 629.239L278.822 629.239L278.698 629.003L216.32 510.62C211.136 500.78 214.804 488.601 224.561 483.262C234.392 477.881 246.723 481.456 252.153 491.26L328.201 628.582L328.566 629.239L327.814 629.239L279.09 629.239Z" stroke="#3A3A3A" stroke-width="0.886177"/>
<path d="M217.881 508.432C212.461 499.989 214.911 488.75 223.354 483.33C231.797 477.909 243.035 480.359 248.456 488.802C253.876 497.245 251.426 508.484 242.983 513.904C234.54 519.325 223.302 516.875 217.881 508.432Z" fill="#3A3A3A" stroke="#3A3A3A" stroke-width="0.886177"/>
<line y1="-0.221544" x2="33.348" y2="-0.221544" transform="matrix(-0.540263 -0.841496 -0.841496 0.540263 241.576 512.421)" stroke="#00F9EA" stroke-opacity="0.28" stroke-width="0.443088" stroke-dasharray="0.89 0.89"/>
<line y1="-0.221544" x2="32.3265" y2="-0.221544" transform="matrix(-0.841496 0.540263 0.540263 0.841496 246.169 489.657)" stroke="#00F9EA" stroke-opacity="0.28" stroke-width="0.443088" stroke-dasharray="0.89 0.89"/>
<rect x="-0.0667364" y="0.306121" width="32.9049" height="32.8355" rx="16.4178" transform="matrix(-0.841496 0.540263 0.540263 0.841496 237.732 475.159)" stroke="#00F9EA" stroke-opacity="0.28" stroke-width="0.443088"/>
<line y1="-0.221544" x2="26.4419" y2="-0.221544" transform="matrix(0.993411 -0.114608 -0.114608 -0.993411 299.811 498.588)" stroke="#00F9EA" stroke-opacity="0.28" stroke-width="0.443088" stroke-dasharray="0.89 0.89"/>
<line y1="-0.221544" x2="25.6319" y2="-0.221544" transform="matrix(-0.114608 -0.993411 -0.993411 0.114608 314.414 509.804)" stroke="#00F9EA" stroke-opacity="0.28" stroke-width="0.443088" stroke-dasharray="0.89 0.89"/>
<rect x="-0.245475" y="-0.194694" width="25.9988" height="25.9438" rx="12.9719" transform="matrix(-0.114608 -0.993411 -0.993411 0.114608 327.174 508.678)" stroke="#00F9EA" stroke-opacity="0.28" stroke-width="0.443088"/>
<path d="M366.388 476.79C381.787 475.124 395.323 487.28 395.323 502.774C395.323 517.561 383.563 529.555 368.772 529.854L287.25 531.503C274.666 531.757 264.119 521.842 263.599 509.267C263.102 497.27 271.933 487.007 283.861 485.717L366.388 476.79Z" fill="#3A3A3A"/>
<path d="M395.766 502.779C395.766 487.019 381.999 474.656 366.336 476.35L283.809 485.276C271.651 486.591 262.65 497.053 263.156 509.281C263.687 522.099 274.436 532.205 287.264 531.945L368.785 530.297C383.816 529.993 395.766 517.805 395.766 502.779Z" stroke="#3A3A3A" stroke-width="0.886177"/>
<path d="M199.058 662.857L220.037 622.637L188.62 610.94L160.174 651.262L199.058 662.857Z" fill="#FDBA90" stroke="#FDBA90" stroke-width="0.886177"/>
<path d="M215.716 642.606C216.67 640.277 214.96 637.722 212.442 637.718L162.504 637.621C161.984 637.62 161.469 637.734 160.998 637.954L138.783 648.328C138.593 648.416 138.412 648.521 138.242 648.641L121.741 660.258C118.914 662.249 120.317 666.695 123.774 666.702L203.395 666.855C204.836 666.858 206.135 665.988 206.682 664.654L215.716 642.606Z" fill="#662D03"/>
<line x1="194.211" y1="653.564" x2="194.65" y2="615.854" stroke="#00F9EA" stroke-opacity="0.28" stroke-width="0.443088" stroke-dasharray="0.89 0.89"/>
<line x1="176.378" y1="634.277" x2="212.933" y2="634.703" stroke="#00F9EA" stroke-opacity="0.28" stroke-width="0.443088" stroke-dasharray="0.89 0.89"/>
<rect x="182.894" y="610.832" width="37.2695" height="37.191" rx="18.5955" transform="rotate(19.928 182.894 610.832)" stroke="#00F9EA" stroke-opacity="0.28" stroke-width="0.443088"/>
<path d="M261.693 499.237C268.874 489.499 282.565 487.375 292.358 494.481C302.399 501.766 304.446 515.904 296.883 525.738L217.467 629.003L166.005 629.003L261.693 499.237Z" fill="#3A3A3A"/>
<path d="M261.693 499.237C268.874 489.499 282.565 487.375 292.358 494.481C302.399 501.766 304.446 515.904 296.883 525.738L217.467 629.003L166.005 629.003L261.693 499.237Z" stroke="#3A3A3A" stroke-width="0.886177"/>
<path d="M293.468 518.058C299.914 510.369 298.907 498.911 291.218 492.465C283.529 486.019 272.071 487.026 265.625 494.715C259.179 502.404 260.187 513.862 267.875 520.308C275.564 526.754 287.022 525.746 293.468 518.058Z" fill="#3A3A3A" stroke="#3A3A3A" stroke-width="0.886177"/>
<line x1="269.29" y1="518.872" x2="290.715" y2="493.317" stroke="#00F9EA" stroke-opacity="0.28" stroke-width="0.443088" stroke-dasharray="0.89 0.89"/>
<line x1="267.928" y1="495.683" x2="292.701" y2="516.451" stroke="#00F9EA" stroke-opacity="0.28" stroke-width="0.443088" stroke-dasharray="0.89 0.89"/>
<rect x="277.742" y="482.731" width="32.9049" height="32.8355" rx="16.4178" transform="rotate(39.9754 277.742 482.731)" stroke="#00F9EA" stroke-opacity="0.28" stroke-width="0.443088"/>
<line x1="365.936" y1="501.335" x2="392.348" y2="502.589" stroke="#00F9EA" stroke-opacity="0.28" stroke-width="0.443088" stroke-dasharray="0.89 0.89"/>
<line x1="379.96" y1="489.393" x2="378.746" y2="514.996" stroke="#00F9EA" stroke-opacity="0.28" stroke-width="0.443088" stroke-dasharray="0.89 0.89"/>
<rect x="392.752" y="489.41" width="25.9988" height="25.9438" rx="12.9719" transform="rotate(92.7169 392.752 489.41)" stroke="#00F9EA" stroke-opacity="0.28" stroke-width="0.443088"/>
<path d="M293.587 442.837C293.587 431.091 303.109 421.569 314.855 421.569H357.882C369.629 421.569 379.151 431.091 379.151 442.837V504.219H293.587V442.837Z" fill="#3A3A3A"/>
<path d="M379.151 504.662H379.594V504.219V442.837C379.594 430.846 369.873 421.126 357.882 421.126H314.855C302.865 421.126 293.144 430.847 293.144 442.837V504.219V504.662H293.587H379.151Z" stroke="#3A3A3A" stroke-width="0.886177"/>
<line x1="336.471" y1="478.561" x2="336.471" y2="465.469" stroke="#00F9EA" stroke-opacity="0.28" stroke-width="0.443088" stroke-dasharray="0.89 0.89"/>
<line x1="330.575" y1="471.793" x2="342.812" y2="471.793" stroke="#00F9EA" stroke-opacity="0.28" stroke-width="0.443088" stroke-dasharray="0.89 0.89"/>
<rect x="330.409" y="465.69" width="12.1814" height="12.6221" rx="6.09069" stroke="#00F9EA" stroke-opacity="0.28" stroke-width="0.443088"/>
<path d="M281.472 363.776L296.626 474.95H379.3L396.364 360.766C396.788 357.928 394.884 355.266 392.061 354.75L339.205 345.089C338.465 344.954 337.704 344.977 336.973 345.158L285.464 357.897C282.827 358.549 281.105 361.084 281.472 363.776Z" fill="#346BF7"/>
<path d="M296.187 475.009L296.239 475.393H296.626H379.3H379.682L379.739 475.015L396.802 360.831C397.262 357.757 395.199 354.873 392.141 354.314L339.285 344.653C338.483 344.507 337.658 344.532 336.867 344.728L285.358 357.466C282.5 358.173 280.636 360.92 281.033 363.836L296.187 475.009Z" stroke="#346BF7" stroke-width="0.886177"/>
<path d="M293.881 358.439C301.762 362.447 305.076 372.114 301.284 380.032C297.491 387.949 288.028 391.118 280.148 387.11L220.835 356.942C212.954 352.934 209.64 343.266 213.432 335.349C217.225 327.432 226.688 324.263 234.569 328.271L293.881 358.439Z" fill="#FDBA90"/>
<path d="M293.691 358.837C301.353 362.734 304.575 372.133 300.887 379.83C297.2 387.528 288 390.608 280.338 386.711L221.025 356.544C213.364 352.647 210.141 343.248 213.829 335.551C217.516 327.853 226.716 324.772 234.378 328.669L293.691 358.837Z" stroke="#FDBA90" stroke-width="0.886177"/>
<mask id="mask0_9_28" style="mask-type:alpha" maskUnits="userSpaceOnUse" x="211" y="326" width="92" height="63">
<path d="M293.691 358.836C301.352 362.733 304.575 372.132 300.887 379.83C297.2 387.527 288 390.608 280.338 386.711L221.025 356.544C213.364 352.647 210.141 343.248 213.829 335.55C217.516 327.853 226.716 324.772 234.378 328.669L293.691 358.836Z" fill="#F8DAC3" stroke="#F8DAC3" stroke-width="0.886177"/>
</mask>
<g mask="url(#mask0_9_28)">
<path d="M303.904 380.977C308.149 372.196 304.768 361.662 296.353 357.449L258.922 338.443L247.081 371.72L280.981 389.25C289.396 393.462 299.659 389.759 303.904 380.977Z" fill="#ED9D63"/>
</g>
<path d="M298.467 357.321L298.467 357.321L298.461 357.318L262.965 340.221L262.565 340.029L262.379 340.428L247.763 371.622L247.58 372.014L247.968 372.212L282.707 389.916L282.71 389.917C291.714 394.425 302.54 390.782 306.891 381.781C311.242 372.78 307.47 361.829 298.467 357.321Z" fill="#346BF7" stroke="#346BF7" stroke-width="0.886177"/>
<path d="M275.003 281.417L294.78 307.267L239.37 350.041C233.018 354.945 223.925 353.648 218.936 347.126C213.946 340.605 214.901 331.266 221.083 326.139L275.003 281.417Z" fill="#FDBA90"/>
<path d="M221.335 326.458L274.944 281.994L294.218 307.187L239.128 349.714C232.948 354.485 224.101 353.223 219.246 346.878C214.392 340.533 215.321 331.446 221.335 326.458Z" stroke="#FDBA90" stroke-width="0.804693"/>
<circle cx="15.0458" cy="15.0458" r="14.6435" transform="matrix(-0.702106 -0.721991 0.686282 -0.71777 227.65 361.972)" fill="#FDBA90" stroke="#FDBA90" stroke-width="0.804693"/>
<path d="M267.717 286.126C262.893 293.909 263.741 300.698 271.231 307.819C278.721 314.94 285.228 314.667 294.898 307.684C302.014 302.545 310.858 295.195 312.659 289.686C313.383 287.473 313.169 284.546 311.353 283.671C309.538 282.796 308.241 284.499 306.976 286.593C305.546 288.96 303.087 291.68 301.096 290.673C299.921 290.079 299.509 287.528 300.388 285.926C301.829 283.297 303.389 281.395 305.547 279.141C307.024 277.6 308.377 276.251 309.361 275.287C309.853 274.806 310.251 274.422 310.525 274.16L310.918 273.786C312.682 271.979 312.598 269.733 311.323 268.306C308.876 265.568 306.378 267.824 306.036 268.158C306.467 267.725 306.811 267.386 307.047 267.154C307.168 267.035 307.323 266.884 307.323 266.884C308.657 265.599 308.551 263.822 307.337 262.456C306.122 261.089 304.184 261.145 303.116 261.76C302.048 262.375 300.772 263.605 300.772 263.605C298.659 260.476 295.801 260.73 294.405 261.657C293.009 262.585 291.444 264.03 289.494 266.14C289.201 266.456 289.004 266.677 288.752 266.958C288.644 266.393 288.383 265.847 287.967 265.393C286.82 264.138 285.296 264.456 283.934 265.49C282.572 266.524 278.331 270.747 276.109 273.719C273.888 276.691 272.541 278.342 267.717 286.126Z" fill="#FDBA90"/>
<path d="M288.752 266.958C288.644 266.393 288.383 265.847 287.967 265.393C286.82 264.138 285.296 264.456 283.934 265.49C282.572 266.524 278.331 270.747 276.109 273.719C273.888 276.691 272.541 278.342 267.717 286.126C262.893 293.909 263.741 300.698 271.231 307.819C278.721 314.94 285.228 314.667 294.898 307.684C302.014 302.545 310.858 295.195 312.659 289.686C313.383 287.473 313.169 284.546 311.353 283.671C309.538 282.796 308.241 284.499 306.976 286.593C305.546 288.96 303.087 291.68 301.096 290.673C299.921 290.079 299.509 287.528 300.388 285.926C301.829 283.297 303.389 281.395 305.547 279.141C307.024 277.6 308.377 276.251 309.361 275.287C309.853 274.806 310.251 274.422 310.525 274.16L310.918 273.786C312.682 271.979 312.598 269.733 311.323 268.306C308.688 265.358 305.996 268.198 305.996 268.198M288.752 266.958C289.004 266.677 289.201 266.456 289.494 266.14C291.444 264.03 293.009 262.585 294.405 261.657C295.801 260.73 298.659 260.476 300.772 263.605M288.752 266.958C286.698 269.19 283.081 273.307 282.329 274.554M300.772 263.605C300.772 263.605 297.346 266.856 296.911 267.291M300.772 263.605C300.772 263.605 298.424 265.87 296.911 267.291M300.772 263.605C300.772 263.605 302.048 262.375 303.116 261.76C304.184 261.145 306.122 261.089 307.337 262.456C308.551 263.822 308.657 265.599 307.323 266.884C307.323 266.884 307.168 267.035 307.047 267.154C306.804 267.393 306.446 267.746 305.996 268.198M296.911 267.291C293.965 270.289 292.078 272.412 289.41 275.674M305.996 268.198C305.094 269.103 303.822 270.401 302.347 271.967C302.347 271.967 297.82 276.877 295.441 279.751M305.996 268.198C305.996 268.198 305.638 268.565 305.494 268.704C305.204 268.981 304.878 269.354 304.367 269.854C303.347 270.853 300.469 273.99 300.469 273.99" stroke="#FDBA90" stroke-width="0.804694" stroke-linecap="round" stroke-linejoin="round"/>
<path d="M288.377 266.697C286.355 268.592 282.35 272.737 282.506 274.154M300.089 264.227C296.591 267.124 289.371 273.744 288.477 277.054M293.35 282.33C295.492 279.228 301.182 271.962 306.803 267.71" stroke="#ED9D63" stroke-width="0.804694" stroke-linecap="round" stroke-linejoin="round"/>
<line y1="-0.201173" x2="26.9724" y2="-0.201173" transform="matrix(-0.570493 0.808795 0.804328 0.611577 287.044 289.352)" stroke="#00F9EA" stroke-opacity="0.28" stroke-width="0.402347" stroke-dasharray="0.8 0.8"/>
<line y1="-0.201173" x2="25.7809" y2="-0.201173" transform="matrix(0.804328 0.611577 0.570493 -0.808795 268.982 292.376)" stroke="#00F9EA" stroke-opacity="0.28" stroke-width="0.402347" stroke-dasharray="0.8 0.8"/>
<rect x="0.276577" y="-0.039675" width="26.1932" height="26.5139" rx="13.0966" transform="matrix(0.804328 0.611577 0.570493 -0.808795 260.71 302.544)" stroke="#00F9EA" stroke-opacity="0.28" stroke-width="0.402347"/>
<line y1="-0.201173" x2="26.9759" y2="-0.201173" transform="matrix(-0.686283 0.71777 0.702106 0.721991 237.098 330.159)" stroke="#00F9EA" stroke-opacity="0.28" stroke-width="0.402347" stroke-dasharray="0.8 0.8"/>
<line y1="-0.201173" x2="25.7775" y2="-0.201173" transform="matrix(0.702106 0.721991 0.686282 -0.71777 218.792 330.535)" stroke="#00F9EA" stroke-opacity="0.28" stroke-width="0.402347" stroke-dasharray="0.8 0.8"/>
<rect x="0.279307" y="0.000849097" width="26.1897" height="26.5174" rx="13.0949" transform="matrix(0.702106 0.721991 0.686282 -0.71777 209.046 339.428)" stroke="#00F9EA" stroke-opacity="0.28" stroke-width="0.402347"/>
<line y1="-0.221544" x2="27.195" y2="-0.221544" transform="matrix(0.973854 0.227174 0.211968 -0.977277 277.356 369.05)" stroke="#00F9EA" stroke-opacity="0.28" stroke-width="0.443088" stroke-dasharray="0.89 0.89"/>
<line y1="-0.221544" x2="27.2433" y2="-0.221544" transform="matrix(0.211968 -0.977277 -0.973854 -0.227174 287.711 385.451)" stroke="#00F9EA" stroke-opacity="0.28" stroke-width="0.443088" stroke-dasharray="0.89 0.89"/>
<rect x="-0.168792" y="-0.266839" width="27.6611" height="26.6953" rx="13.3476" transform="matrix(0.211968 -0.977277 -0.973854 -0.227174 300.377 388.89)" stroke="#00F9EA" stroke-opacity="0.28" stroke-width="0.443088"/>
<path d="M282.539 382.301L294.016 467.05" stroke="white" stroke-width="0.886177" stroke-linecap="round" stroke-linejoin="round"/>
<path d="M404.326 372.51C402.268 363.943 393.64 358.594 385.054 360.562C376.468 362.53 371.176 371.07 373.233 379.637L388.719 444.115C390.776 452.682 399.404 458.032 407.99 456.063C416.576 454.095 421.869 445.555 419.811 436.988L404.326 372.51Z" fill="#FDBA90"/>
<path d="M403.894 372.609C401.894 364.28 393.505 359.079 385.158 360.993C376.81 362.906 371.665 371.209 373.665 379.538L389.15 444.016C391.151 452.345 399.539 457.546 407.887 455.633C416.234 453.719 421.38 445.416 419.379 437.087L403.894 372.609Z" stroke="#FDBA90" stroke-width="0.886177"/>
<mask id="mask1_9_28" style="mask-type:alpha" maskUnits="userSpaceOnUse" x="372" y="360" width="49" height="97">
<path d="M403.893 372.61C401.893 364.281 393.504 359.08 385.157 360.993C376.81 362.906 371.664 371.21 373.665 379.539L389.15 444.016C391.15 452.345 399.539 457.546 407.886 455.633C416.234 453.72 421.379 445.416 419.379 437.087L403.893 372.61Z" fill="#F8DAC3" stroke="#F8DAC3" stroke-width="0.886177"/>
</mask>
<g mask="url(#mask1_9_28)">
<path d="M384.739 358.685C394.272 356.464 403.803 362.393 406.028 371.926L415.514 407.99L379.222 415.318L371.509 379.967C369.284 370.433 375.207 360.905 384.739 358.685Z" fill="#ED9D63"/>
</g>
<path d="M415.442 403.145L415.334 402.725L406.482 368.276C404.199 358.507 394.431 352.433 384.662 354.708C374.892 356.984 368.821 366.75 371.101 376.521L415.442 403.145ZM415.442 403.145L415.025 403.261L380.016 413.065L379.569 413.191L379.464 412.738L371.101 376.522L415.442 403.145Z" fill="#346BF7" stroke="#346BF7" stroke-width="0.886177"/>
<line y1="-0.221544" x2="28.1518" y2="-0.221544" transform="matrix(0.0065326 -0.999979 0.999975 0.00702594 390.603 387.274)" stroke="#00F9EA" stroke-opacity="0.28" stroke-width="0.443088" stroke-dasharray="0.89 0.89"/>
<line y1="-0.221544" x2="26.3141" y2="-0.221544" transform="matrix(0.999975 0.00702596 -0.00653273 0.999979 377.539 373.106)" stroke="#00F9EA" stroke-opacity="0.28" stroke-width="0.443088" stroke-dasharray="0.89 0.89"/>
<rect x="0.220091" y="0.223096" width="26.7026" height="27.6501" rx="13.3513" transform="matrix(0.999975 0.00702596 -0.00653273 0.999979 376.8 359.023)" stroke="#00F9EA" stroke-opacity="0.28" stroke-width="0.443088"/>
<path d="M323.348 447.134L325.243 477.585L405.233 469.072C412.704 468.276 418.127 461.52 417.289 454.051C416.492 446.945 410.293 441.736 403.161 442.179L323.348 447.134Z" fill="#FDBA90"/>
<path d="M403.186 442.622L323.818 447.549L325.656 477.095L405.189 468.631C412.415 467.862 417.66 461.327 416.849 454.104C416.078 447.231 410.083 442.194 403.186 442.622Z" stroke="#FDBA90" stroke-width="0.886177"/>
<circle cx="16.5694" cy="16.5694" r="16.1263" transform="matrix(0.0381195 -0.999258 -0.999176 -0.0409944 421.339 469.793)" fill="#FDBA90" stroke="#FDBA90" stroke-width="0.886177"/>
<path d="M322.616 447.789C330.319 447.75 332.621 451.786 333.619 457.887C334.616 463.987 333.154 472.283 324.721 475.126C315.685 478.173 295.868 474.927 289.874 474.352C287.465 474.121 284.043 473.498 284.552 472.218C283.659 472.563 277.136 471.691 277.136 471.691C273.931 471.729 271.676 470.708 271.334 469.574C270.72 467.534 274.404 467.035 275.367 466.94C274.658 466.947 273.675 466.532 273.675 466.532C271.641 466.915 270.498 465.491 270.166 464.409C269.834 463.326 270.767 462.175 272.039 461.749C273.311 461.323 274.73 461.193 274.73 461.193C273.505 459.093 275.71 457.55 277.479 457.028C279.248 456.507 281.58 456.04 284.752 455.547C285.176 455.481 285.483 455.436 285.839 455.383L285.972 455.364C285.56 455.139 284.859 455.612 284.757 455.245C284.474 454.233 286.493 453.164 288.33 452.692C290.167 452.221 302.044 448.27 306.147 447.873C310.25 447.476 314.913 447.829 322.616 447.789Z" fill="#FDBA90"/>
<path d="M285.972 455.364C285.56 455.139 284.859 455.612 284.757 455.245C284.474 454.233 286.493 453.164 288.33 452.692C290.167 452.221 302.044 448.27 306.147 447.873C310.25 447.476 314.913 447.829 322.616 447.789C330.319 447.75 332.621 451.786 333.619 457.887C334.616 463.987 333.154 472.283 324.721 475.126C315.685 478.173 295.868 474.927 289.874 474.352C287.465 474.121 284.043 473.498 284.552 472.218C283.659 472.563 277.136 471.691 277.136 471.691C273.931 471.729 271.676 470.708 271.334 469.574C270.628 467.231 275.593 466.921 275.593 466.921M285.972 455.364C285.556 455.425 285.228 455.473 284.752 455.547C281.58 456.04 279.248 456.507 277.479 457.028C275.71 457.55 273.505 459.093 274.73 461.193M285.972 455.364C289.321 454.847 295.38 453.993 296.976 453.928M274.73 461.193C274.73 461.193 279.91 460.196 280.587 460.075M274.73 461.193C274.73 461.193 278.312 460.52 280.587 460.075M274.73 461.193C274.73 461.193 273.311 461.323 272.039 461.749C270.767 462.175 269.834 463.326 270.166 464.409C270.498 465.491 271.641 466.915 273.675 466.532C273.675 466.532 274.891 467.045 275.593 466.921M280.587 460.075C285.215 459.276 288.355 458.823 293.018 458.258M275.593 466.921C276.999 466.673 279.001 466.329 281.374 465.947C281.374 465.947 288.748 464.807 292.876 464.293M275.593 466.921C275.593 466.921 276.158 466.825 276.378 466.784C276.818 466.7 277.366 466.623 278.151 466.479C279.72 466.191 284.422 465.47 284.422 465.47" stroke="#FDBA90" stroke-width="0.886177" stroke-linecap="round" stroke-linejoin="round"/>
<path d="M309.338 447.105C321.175 446.115 327.717 448.945 333.836 450.473" stroke="#ED9D63" stroke-width="0.886177" stroke-linecap="round" stroke-linejoin="round"/>
<path d="M275.053 467.288C279.45 466.416 290.319 464.99 296.463 465.177" stroke="#ED9D63" stroke-width="0.886177" stroke-linecap="round" stroke-linejoin="round"/>
<path d="M276.383 461.162C281.401 459.256 293.405 457.512 300.394 458.22" stroke="#ED9D63" stroke-width="0.886177" stroke-linecap="round" stroke-linejoin="round"/>
<line y1="-0.221544" x2="28.9732" y2="-0.221544" transform="matrix(0.995838 -0.0872245 0.0811975 0.997024 311.45 461.081)" stroke="#00F9EA" stroke-opacity="0.28" stroke-width="0.443088" stroke-dasharray="0.89 0.89"/>
<line y1="-0.221544" x2="29.092" y2="-0.221544" transform="matrix(0.0811975 0.997024 -0.995838 0.0872243 324.695 445.315)" stroke="#00F9EA" stroke-opacity="0.28" stroke-width="0.443088" stroke-dasharray="0.89 0.89"/>
<rect x="-0.202633" y="0.240209" width="29.5683" height="28.4698" rx="14.2349" transform="matrix(0.0811975 0.997024 -0.995838 0.0872243 339.099 443.556)" stroke="#00F9EA" stroke-opacity="0.28" stroke-width="0.443088"/>
<line y1="-0.221544" x2="28.9566" y2="-0.221544" transform="matrix(0.999176 0.0409942 -0.0381195 0.999258 390.633 451.575)" stroke="#00F9EA" stroke-opacity="0.28" stroke-width="0.443088" stroke-dasharray="0.89 0.89"/>
<line y1="-0.221544" x2="29.1076" y2="-0.221544" transform="matrix(-0.0381195 0.999258 -0.999176 -0.0409944 405.655 437.625)" stroke="#00F9EA" stroke-opacity="0.28" stroke-width="0.443088" stroke-dasharray="0.89 0.89"/>
<rect x="-0.229807" y="0.212298" width="29.5843" height="28.4532" rx="14.2266" transform="matrix(-0.0381195 0.999258 -0.999176 -0.0409944 420.13 437.75)" stroke="#00F9EA" stroke-opacity="0.28" stroke-width="0.443088"/>
<path d="M322.08 333.438C322.08 325.589 328.443 319.226 336.292 319.226C344.142 319.226 350.505 325.589 350.505 333.438V346.879C350.505 354.728 344.142 361.091 336.292 361.091C328.443 361.091 322.08 354.728 322.08 346.879V333.438Z" fill="#FDBA90"/>
<path d="M322.523 333.438C322.523 325.834 328.688 319.669 336.292 319.669C343.897 319.669 350.062 325.834 350.062 333.438V346.879C350.062 354.484 343.897 360.648 336.292 360.648C328.688 360.648 322.523 354.484 322.523 346.879V333.438Z" stroke="#FDBA90" stroke-width="0.886177"/>
<mask id="mask2_9_28" style="mask-type:alpha" maskUnits="userSpaceOnUse" x="322" y="321" width="29" height="43">
<path d="M322.522 336.097C322.522 328.492 328.687 322.328 336.292 322.328C343.896 322.328 350.061 328.492 350.061 336.097V349.537C350.061 357.142 343.896 363.307 336.292 363.307C328.687 363.307 322.522 357.142 322.522 349.537V336.097Z" fill="#F8DAC3" stroke="#F8DAC3" stroke-width="0.886177"/>
</mask>
<g mask="url(#mask2_9_28)">
<path d="M303.451 279.503C303.451 263.575 316.363 250.663 332.291 250.663C348.218 250.663 361.13 263.575 361.13 279.503V311.886C361.13 327.814 348.218 340.726 332.291 340.726C316.363 340.726 303.451 327.814 303.451 311.886V279.503Z" fill="#ED9D63"/>
</g>
<path d="M293.188 280.567C293.231 280.838 293.283 281.105 293.346 281.371C293.678 282.737 294.212 284.051 294.932 285.273L294.97 285.337C295.243 285.796 295.536 286.256 295.852 286.716C296.691 287.895 297.607 289.023 298.593 290.093L299.183 290.723C299.581 291.15 299.983 291.568 300.386 291.982C298.253 291.522 296.188 293.429 295.809 295.488C295.43 297.547 296.288 299.624 297.347 301.462C299.202 304.715 301.876 306.88 304.229 309.706C305.993 311.81 306.97 314.301 308.892 316.314L309.036 316.465C314.111 321.575 322.124 322.77 328.795 324.953C331.191 325.743 342.055 338.731 355.426 333.805C358.404 332.708 359.72 331.607 362.926 328.661C374.427 318.189 378.455 299.215 371.611 285.337C364.255 270.402 348.568 258.703 337.224 256.961C325.879 255.22 320.772 254.746 316.057 256.961C311.341 259.176 308.993 266.046 312.903 269.401C310.444 267.616 307.384 266.764 304.311 267.006C301.471 267.177 298.794 268.332 296.777 270.255C295.179 271.794 294.031 273.708 293.446 275.806C293.013 277.358 292.925 278.98 293.188 280.567Z" fill="#934103"/>
<path d="M355.487 307.32C355.487 303.16 358.859 299.788 363.019 299.788C367.179 299.788 370.552 303.16 370.552 307.32C370.552 311.48 367.179 314.853 363.019 314.853C358.859 314.853 355.487 311.48 355.487 307.32Z" fill="#FDBA90" stroke="#FDBA90" stroke-width="0.886177"/>
<path d="M302.033 307.32C302.033 303.16 305.405 299.788 309.565 299.788C313.725 299.788 317.098 303.16 317.098 307.32C317.098 311.48 313.725 314.853 309.565 314.853C305.405 314.853 302.033 311.48 302.033 307.32Z" fill="#FDBA90" stroke="#FDBA90" stroke-width="0.886177"/>
<path d="M305.864 304.745C306.597 305.423 308.03 307.105 307.9 308.408" stroke="#662D03" stroke-width="0.886177" stroke-linecap="round" stroke-linejoin="round"/>
<path d="M366.843 305.122C365.57 305.122 364.678 307.482 364.808 308.785" stroke="#662D03" stroke-width="0.886177" stroke-linecap="round" stroke-linejoin="round"/>
<path d="M310.418 291.022C310.418 273.166 328.078 260.677 344.914 266.627C355.254 270.281 362.167 280.056 362.167 291.022V313.326C362.167 327.616 350.582 339.2 336.293 339.2C322.003 339.2 310.418 327.616 310.418 313.326V291.022Z" fill="#FDBA90"/>
<path d="M310.862 291.022C310.862 273.471 328.219 261.196 344.767 267.045C354.929 270.636 361.724 280.244 361.724 291.022V313.326C361.724 327.371 350.338 338.757 336.293 338.757C322.247 338.757 310.862 327.371 310.862 313.326V291.022Z" stroke="#FDBA90" stroke-width="0.886177"/>
<mask id="mask3_9_28" style="mask-type:alpha" maskUnits="userSpaceOnUse" x="278" y="240" width="98" height="71">
<path d="M310.344 299.431C310.344 299.431 310.138 291.454 310.724 289.182C311.816 284.946 315.408 283.321 316.317 282.05C323.705 290.772 340.792 299.347 354.701 296.098C354.701 301.236 357.263 310.797 359.589 310.797C361.915 310.797 362.784 298.655 365.813 299.347C371.787 290.211 383.424 275.248 365.813 264.163L367.261 262.099L369.876 260.537C367.726 258.144 359.702 257.031 357.538 260.227C357.538 260.227 353.761 249.754 337.107 242.559C317.834 234.233 289.424 257.796 289.424 257.796L278.857 277.713L301.555 307.142C301.555 307.142 301.21 302.999 305.698 300.324C307.783 299.08 310.344 299.431 310.344 299.431Z" fill="#D9D9D9"/>
</mask>
<g mask="url(#mask3_9_28)">
<path d="M293.044 279.395C293.087 279.672 293.139 279.944 293.2 280.217C293.53 281.613 294.059 282.955 294.772 284.203L294.81 284.269C295.081 284.738 295.371 285.208 295.684 285.678C296.516 286.883 297.423 288.036 298.4 289.129L298.984 289.772C299.379 290.209 299.778 290.636 300.176 291.058C298.063 290.589 296.016 292.537 295.641 294.641C295.266 296.745 296.116 298.867 297.166 300.745C299.003 304.069 301.653 306.281 303.985 309.169C305.732 311.319 306.701 313.864 308.605 315.921L308.748 316.076C313.777 321.297 321.717 322.518 328.327 324.748C330.701 325.556 356.449 332.786 356.449 334.364C356.449 334.021 358.971 331.547 362.148 328.537C373.545 317.836 377.535 298.449 370.754 284.269C363.465 269.009 349.147 258.539 336.679 255.275C324.212 252.011 320.378 253.012 315.705 255.275C311.032 257.538 308.705 264.558 312.58 267.985C310.143 266.162 307.112 265.291 304.066 265.539C301.252 265.713 298.599 266.893 296.601 268.859C295.017 270.431 293.879 272.387 293.3 274.531C292.871 276.116 292.783 277.774 293.044 279.395Z" fill="#934103"/>
<path d="M292.925 278.851C292.936 279.326 292.929 279.781 292.998 280.066C293.202 281.525 293.887 283.612 294.191 284.103C294.495 284.595 295.29 286.002 295.642 286.494C296.567 287.762 297.92 289.363 297.92 289.363C297.92 289.363 299.039 290.636 299.487 291.079C298.127 290.812 295.776 292.827 295.355 295.03C294.933 297.232 295.888 299.454 297.067 301.42C299.132 304.901 302.109 307.216 304.729 310.24C306.692 312.491 307.78 315.156 309.92 317.309C312.404 314.587 313.985 311.265 314.476 307.737C315.351 301.219 320.289 296.529 320.529 289.932C319.246 284.17 316.658 282.602 313.958 279.244C311.788 276.776 309.277 274.58 306.489 272.711C304.313 271.388 301.512 271.182 298.913 271.521C296.649 271.806 294.342 272.695 293.573 273.726C293.088 275.384 292.874 276.834 292.925 278.851Z" fill="#662D03"/>
</g>
<line x1="336.371" y1="342.327" x2="336.371" y2="322.677" stroke="#00F9EA" stroke-opacity="0.28" stroke-width="0.443088" stroke-dasharray="0.89 0.89"/>
<line x1="327.068" y1="332.281" x2="346.117" y2="332.281" stroke="#00F9EA" stroke-opacity="0.28" stroke-width="0.443088" stroke-dasharray="0.89 0.89"/>
<rect x="326.688" y="322.899" width="19.2071" height="19.1662" rx="9.58311" stroke="#00F9EA" stroke-opacity="0.28" stroke-width="0.443088"/>
<path d="M310.64 305.811C310.64 304.549 310.319 295.27 310.319 292.746C310.319 286.196 315.995 282.023 315.995 282.023" stroke="#662D03" stroke-width="0.886177" stroke-linecap="round" stroke-linejoin="round"/>
<path d="M341.453 326.778C338.267 325.33 334.657 325.083 331.293 326.084" stroke="#662D03" stroke-width="0.886177" stroke-linecap="round"/>
<path d="M332.939 307.38C330.423 310.044 330.038 319.237 330.038 319.237H334.725" stroke="#662D03" stroke-width="0.886177" stroke-linecap="round" stroke-linejoin="round"/>
<path d="M353.175 299.344C348.663 300.273 344.022 300.404 339.465 299.732" stroke="#662D03" stroke-width="0.886177" stroke-linecap="round"/>
<path d="M328.532 299.344C324.02 300.273 319.379 300.404 314.822 299.732" stroke="#662D03" stroke-width="0.886177" stroke-linecap="round"/>
<path d="M345.476 303.669C342.503 303.669 342.503 309.84 345.476 309.873H345.612C348.59 309.873 348.59 303.702 345.612 303.669H345.481H345.476Z" fill="#662D03"/>
<path d="M321.556 303.669C318.583 303.705 318.583 309.838 321.556 309.873H321.692C324.665 309.873 324.665 303.705 321.692 303.669H321.556Z" fill="#662D03"/>
<line x1="336.585" y1="362.249" x2="336.585" y2="341.441" stroke="#00F9EA" stroke-opacity="0.28" stroke-width="0.443088" stroke-dasharray="0.89 0.89"/>
<line x1="327.081" y1="351.624" x2="346.531" y2="351.624" stroke="#00F9EA" stroke-opacity="0.28" stroke-width="0.443088" stroke-dasharray="0.89 0.89"/>
<rect x="326.688" y="341.662" width="19.6213" height="20.3217" rx="9.81065" stroke="#00F9EA" stroke-opacity="0.28" stroke-width="0.443088"/>
<line x1="336.692" y1="436" x2="336.692" y2="408" stroke="#00F9EA" stroke-opacity="0.28" stroke-width="0.443088" stroke-dasharray="0.89 0.89"/>
<line x1="323.827" y1="421.778" x2="349.999" y2="421.778" stroke="#00F9EA" stroke-opacity="0.28" stroke-width="0.443088" stroke-dasharray="0.89 0.89"/>
<rect x="323.221" y="408.222" width="26.5561" height="27.4986" rx="13.2781" stroke="#00F9EA" stroke-opacity="0.28" stroke-width="0.443088"/>
<path d="M309.038 356.077L318.284 379.509L336.474 368.589L353.705 379.509L362.953 351.215" stroke="#FCEFE6" stroke-width="0.886177" stroke-linecap="round" stroke-linejoin="round"/>
<path d="M169.871 626.823L266.106 490.107C268.922 485.73 277.688 481.54 288.419 482.525" stroke="white" stroke-width="0.886177" stroke-linecap="round" stroke-linejoin="round"/>
<path d="M294.558 531.931L244.673 600.558" stroke="white" stroke-width="0.886177" stroke-linecap="round" stroke-linejoin="round"/>
<path d="M373 388.5L381.351 412.5L401 406.125" stroke="#FCEFE6" stroke-width="0.886177" stroke-linecap="round" stroke-linejoin="round"/>
<path d="M44.9838 477.033V670.843C44.9838 672.939 43.1307 674.638 40.8448 674.638C38.5589 674.638 36.7057 672.939 36.7057 670.843L36.7057 473.509C36.7057 471.683 38.1126 470.158 39.9868 469.796C40.5171 469.569 41.1083 469.443 41.7317 469.443L449.46 469.443C451.746 469.443 453.599 471.142 453.599 473.238C453.599 475.334 451.746 477.033 449.46 477.033H44.9838Z" fill="#8C837C"/>
<path d="M146.147 460.866L152.34 436.068H105.845C101.015 436.068 97.0208 432.425 97.0208 428.015V357.778C96.9572 353.305 100.886 349.662 105.781 349.662H247.283C252.113 349.662 256.106 353.305 256.106 357.714V428.015C256.106 432.425 252.113 436.068 247.283 436.068H190.62L188.064 460.866H204.839C207.416 460.866 209.412 462.911 209.412 465.404C209.412 467.96 207.351 469.941 204.839 469.941H133.026C130.449 469.941 128.453 467.896 128.453 465.404C128.324 462.911 130.449 460.866 133.026 460.866H146.147Z" fill="#3A3A3A"/>
<path fill-rule="evenodd" clip-rule="evenodd" d="M192.54 417.993L192.731 460.93H188.114L192.54 417.993Z" fill="white"/>
<path d="M279.202 202.944H213.727C207.941 202.944 203.251 207.636 203.251 213.423V246.434C203.251 252.221 207.941 256.913 213.727 256.913H279.202L290.793 260.52C292.485 261.047 294.075 259.463 293.555 257.769L289.678 245.138V213.423C289.678 207.636 284.988 202.944 279.202 202.944Z" fill="#346BF7"/>
<path d="M226.528 229.858C226.528 230.908 226.364 231.877 226.037 232.764C225.71 233.65 225.236 234.412 224.616 235.05C223.996 235.687 223.256 236.177 222.395 236.522C221.534 236.858 220.565 237.026 219.489 237.026C218.422 237.026 217.462 236.853 216.609 236.509C215.757 236.165 215.016 235.674 214.388 235.037C213.768 234.391 213.295 233.633 212.967 232.764C212.649 231.885 212.489 230.917 212.489 229.858C212.489 228.79 212.653 227.813 212.98 226.926C213.307 226.039 213.777 225.282 214.388 224.653C214.999 224.025 215.74 223.543 216.609 223.207C217.479 222.862 218.439 222.69 219.489 222.69C220.557 222.69 221.525 222.862 222.395 223.207C223.265 223.551 224.009 224.042 224.629 224.679C225.249 225.316 225.718 226.074 226.037 226.952C226.364 227.83 226.528 228.799 226.528 229.858ZM222.989 229.858C222.989 228.42 222.671 227.301 222.033 226.5C221.405 225.699 220.557 225.299 219.489 225.299C218.8 225.299 218.193 225.48 217.668 225.841C217.143 226.194 216.738 226.72 216.454 227.417C216.17 228.114 216.028 228.928 216.028 229.858C216.028 230.779 216.166 231.584 216.441 232.273C216.726 232.962 217.126 233.491 217.642 233.861C218.168 234.223 218.783 234.404 219.489 234.404C220.557 234.404 221.405 234.003 222.033 233.203C222.671 232.393 222.989 231.278 222.989 229.858ZM242.516 229.858C242.516 230.908 242.353 231.877 242.025 232.764C241.698 233.65 241.225 234.412 240.605 235.05C239.985 235.687 239.244 236.177 238.383 236.522C237.522 236.858 236.554 237.026 235.478 237.026C234.41 237.026 233.45 236.853 232.598 236.509C231.745 236.165 231.005 235.674 230.376 235.037C229.756 234.391 229.283 233.633 228.956 232.764C228.637 231.885 228.478 230.917 228.478 229.858C228.478 228.79 228.641 227.813 228.969 226.926C229.296 226.039 229.765 225.282 230.376 224.653C230.988 224.025 231.728 223.543 232.598 223.207C233.467 222.862 234.427 222.69 235.478 222.69C236.545 222.69 237.514 222.862 238.383 223.207C239.253 223.551 239.998 224.042 240.618 224.679C241.238 225.316 241.707 226.074 242.025 226.952C242.353 227.83 242.516 228.799 242.516 229.858ZM238.978 229.858C238.978 228.42 238.659 227.301 238.022 226.5C237.393 225.699 236.545 225.299 235.478 225.299C234.789 225.299 234.182 225.48 233.657 225.841C233.131 226.194 232.727 226.72 232.443 227.417C232.159 228.114 232.017 228.928 232.017 229.858C232.017 230.779 232.154 231.584 232.43 232.273C232.714 232.962 233.114 233.491 233.631 233.861C234.156 234.223 234.772 234.404 235.478 234.404C236.545 234.404 237.393 234.003 238.022 233.203C238.659 232.393 238.978 231.278 238.978 229.858ZM248.56 224.666V225.092C249.223 224.274 249.912 223.676 250.627 223.297C251.341 222.91 252.151 222.716 253.055 222.716C254.139 222.716 255.138 222.996 256.051 223.555C256.963 224.115 257.682 224.933 258.208 226.009C258.741 227.085 259.008 228.36 259.008 229.832C259.008 230.917 258.853 231.916 258.543 232.828C258.242 233.732 257.824 234.494 257.291 235.114C256.757 235.725 256.124 236.199 255.392 236.535C254.669 236.862 253.89 237.026 253.055 237.026C252.047 237.026 251.199 236.823 250.51 236.419C249.83 236.014 249.18 235.42 248.56 234.636V239.931C248.56 241.481 247.996 242.256 246.868 242.256C246.205 242.256 245.766 242.054 245.551 241.649C245.336 241.253 245.228 240.672 245.228 239.905V224.692C245.228 224.02 245.375 223.521 245.667 223.194C245.96 222.858 246.36 222.69 246.868 222.69C247.368 222.69 247.772 222.862 248.082 223.207C248.401 223.543 248.56 224.029 248.56 224.666ZM255.47 229.793C255.47 228.863 255.328 228.067 255.043 227.404C254.759 226.732 254.363 226.22 253.855 225.867C253.356 225.506 252.801 225.325 252.189 225.325C251.216 225.325 250.394 225.708 249.723 226.474C249.06 227.24 248.728 228.368 248.728 229.858C248.728 231.261 249.06 232.355 249.723 233.138C250.386 233.913 251.208 234.301 252.189 234.301C252.775 234.301 253.317 234.133 253.817 233.797C254.316 233.452 254.716 232.94 255.018 232.26C255.319 231.58 255.47 230.758 255.47 229.793ZM273.189 232.415C273.189 233.388 272.952 234.223 272.478 234.92C272.005 235.609 271.303 236.134 270.373 236.496C269.452 236.849 268.328 237.026 267.002 237.026C265.737 237.026 264.652 236.832 263.748 236.444C262.844 236.057 262.177 235.575 261.746 234.998C261.316 234.412 261.1 233.827 261.1 233.241C261.1 232.854 261.238 232.523 261.514 232.247C261.789 231.972 262.138 231.834 262.56 231.834C262.93 231.834 263.214 231.924 263.412 232.105C263.61 232.286 263.8 232.54 263.98 232.867C264.342 233.495 264.773 233.965 265.272 234.275C265.78 234.585 266.469 234.74 267.338 234.74C268.044 234.74 268.621 234.585 269.069 234.275C269.525 233.956 269.753 233.594 269.753 233.19C269.753 232.57 269.517 232.118 269.043 231.834C268.578 231.55 267.807 231.278 266.731 231.02C265.517 230.719 264.527 230.405 263.761 230.077C263.003 229.742 262.396 229.303 261.94 228.76C261.484 228.218 261.255 227.55 261.255 226.758C261.255 226.052 261.466 225.385 261.888 224.757C262.31 224.128 262.93 223.629 263.748 223.258C264.575 222.88 265.569 222.69 266.731 222.69C267.644 222.69 268.462 222.785 269.185 222.974C269.917 223.164 270.524 223.418 271.006 223.736C271.497 224.055 271.867 224.408 272.117 224.795C272.375 225.183 272.504 225.562 272.504 225.932C272.504 226.336 272.366 226.668 272.091 226.926C271.824 227.184 271.441 227.314 270.941 227.314C270.58 227.314 270.27 227.21 270.012 227.004C269.762 226.797 269.473 226.487 269.146 226.074C268.879 225.729 268.565 225.454 268.204 225.247C267.842 225.041 267.351 224.937 266.731 224.937C266.094 224.937 265.565 225.075 265.143 225.351C264.721 225.618 264.51 225.953 264.51 226.358C264.51 226.728 264.665 227.034 264.975 227.275C265.285 227.507 265.702 227.701 266.228 227.856C266.753 228.011 267.476 228.2 268.397 228.424C269.491 228.691 270.382 229.01 271.071 229.38C271.768 229.75 272.293 230.189 272.646 230.697C273.008 231.197 273.189 231.769 273.189 232.415ZM277.334 228.502L276.921 222.316C276.843 221.11 276.805 220.245 276.805 219.72C276.805 219.005 276.99 218.45 277.36 218.054C277.739 217.649 278.234 217.447 278.845 217.447C279.586 217.447 280.081 217.705 280.33 218.222C280.58 218.73 280.705 219.466 280.705 220.43C280.705 220.998 280.675 221.575 280.615 222.161L280.059 228.528C279.999 229.285 279.87 229.866 279.672 230.271C279.474 230.676 279.147 230.878 278.69 230.878C278.225 230.878 277.902 230.684 277.722 230.297C277.541 229.901 277.412 229.303 277.334 228.502ZM278.768 237C278.243 237 277.782 236.832 277.386 236.496C276.998 236.152 276.805 235.674 276.805 235.062C276.805 234.529 276.99 234.077 277.36 233.706C277.739 233.328 278.2 233.138 278.742 233.138C279.284 233.138 279.745 233.328 280.124 233.706C280.511 234.077 280.705 234.529 280.705 235.062C280.705 235.665 280.511 236.139 280.124 236.483C279.736 236.827 279.284 237 278.768 237Z" fill="white"/>
<path d="M391.494 132.698V119.075H354.727C350.088 119.075 346.597 118.025 344.253 115.926C341.958 113.826 340.811 110.97 340.811 107.356C340.811 106.429 340.981 105.501 341.323 104.573C341.665 103.597 342.178 102.596 342.861 101.57C343.545 100.496 344.253 99.4707 344.985 98.4941C345.718 97.5176 346.621 96.3213 347.695 94.9053L386.514 42.9766C389.053 39.5586 391.128 37.0928 392.739 35.5791C394.399 34.0166 396.377 33.2354 398.672 33.2354C406.094 33.2354 409.805 37.4834 409.805 45.9795V102.669H412.954C416.714 102.669 419.717 103.182 421.963 104.207C424.258 105.232 425.405 107.479 425.405 110.945C425.405 113.777 424.478 115.853 422.622 117.171C420.767 118.44 417.983 119.075 414.272 119.075H409.805V132.698C409.805 136.458 408.975 139.266 407.314 141.121C405.654 142.928 403.433 143.831 400.649 143.831C397.915 143.831 395.693 142.903 393.984 141.048C392.324 139.144 391.494 136.36 391.494 132.698ZM360 102.669H391.494V60.1152L360 102.669ZM510.22 89.3389C510.22 97.3467 509.731 104.231 508.755 109.993C507.778 115.755 505.972 120.979 503.335 125.667C500.015 131.429 495.718 135.872 490.444 138.997C485.171 142.122 479.312 143.685 472.866 143.685C465.444 143.685 458.779 141.585 452.871 137.386C447.012 133.187 442.593 127.376 439.614 119.954C438.101 115.901 436.978 111.434 436.245 106.551C435.562 101.619 435.22 96.2969 435.22 90.584C435.22 83.2109 435.61 76.5703 436.392 70.6621C437.173 64.7539 438.394 59.6758 440.054 55.4277C442.935 48.3965 447.109 43.0498 452.578 39.3877C458.096 35.6768 464.663 33.8213 472.28 33.8213C477.31 33.8213 481.875 34.6514 485.977 36.3115C490.078 37.9229 493.667 40.3154 496.743 43.4893C499.868 46.6143 502.505 50.4961 504.653 55.1348C508.364 63.1914 510.22 74.5928 510.22 89.3389ZM490.151 87.874C490.151 78.9385 489.614 71.6387 488.54 65.9746C487.466 60.2617 485.659 55.9648 483.12 53.084C480.581 50.1543 477.065 48.6895 472.573 48.6895C466.128 48.6895 461.636 51.9365 459.097 58.4307C456.606 64.9248 455.361 74.9346 455.361 88.46C455.361 97.6396 455.898 105.159 456.973 111.019C458.047 116.878 459.854 121.321 462.393 124.349C464.932 127.327 468.374 128.816 472.72 128.816C477.212 128.816 480.728 127.254 483.267 124.129C485.806 121.004 487.588 116.536 488.613 110.726C489.639 104.915 490.151 97.2979 490.151 87.874ZM569.912 132.698V119.075H533.145C528.506 119.075 525.015 118.025 522.671 115.926C520.376 113.826 519.229 110.97 519.229 107.356C519.229 106.429 519.399 105.501 519.741 104.573C520.083 103.597 520.596 102.596 521.279 101.57C521.963 100.496 522.671 99.4707 523.403 98.4941C524.136 97.5176 525.039 96.3213 526.113 94.9053L564.932 42.9766C567.471 39.5586 569.546 37.0928 571.157 35.5791C572.817 34.0166 574.795 33.2354 577.09 33.2354C584.512 33.2354 588.223 37.4834 588.223 45.9795V102.669H591.372C595.132 102.669 598.135 103.182 600.381 104.207C602.676 105.232 603.823 107.479 603.823 110.945C603.823 113.777 602.896 115.853 601.04 117.171C599.185 118.44 596.401 119.075 592.69 119.075H588.223V132.698C588.223 136.458 587.393 139.266 585.732 141.121C584.072 142.928 581.851 143.831 579.067 143.831C576.333 143.831 574.111 142.903 572.402 141.048C570.742 139.144 569.912 136.36 569.912 132.698ZM538.418 102.669H569.912V60.1152L538.418 102.669Z" fill="black"/>
<path d="M344.301 176.416C344.301 175.048 343.749 173.872 342.813 173.104C342.093 172.504 341.373 172.216 339.765 171.976L337.917 171.688C336.957 171.544 335.973 171.136 335.373 170.632C334.773 170.128 334.485 169.384 334.485 168.4C334.485 166.24 335.973 164.872 338.445 164.872C340.485 164.872 341.541 165.52 342.597 166.456L343.437 165.616C341.973 164.344 340.629 163.768 338.517 163.768C335.253 163.768 333.213 165.592 333.213 168.448C333.213 169.768 333.645 170.824 334.557 171.592C335.277 172.216 336.309 172.648 337.605 172.84L339.597 173.152C340.989 173.368 341.445 173.536 342.069 174.064C342.693 174.616 343.005 175.456 343.005 176.464C343.005 178.696 341.301 179.992 338.613 179.992C336.549 179.992 335.301 179.512 333.765 177.976L332.853 178.888C334.413 180.448 335.997 181.144 338.541 181.144C342.093 181.144 344.301 179.296 344.301 176.416ZM359.395 172.456C359.395 168.592 359.371 167.08 357.811 165.52C356.683 164.392 355.147 163.768 353.539 163.768C351.931 163.768 350.395 164.392 349.267 165.52C347.707 167.08 347.683 168.592 347.683 172.456C347.683 176.32 347.707 177.832 349.267 179.392C350.395 180.52 351.931 181.144 353.539 181.144C355.147 181.144 356.683 180.52 357.811 179.392C359.371 177.832 359.395 176.32 359.395 172.456ZM358.099 172.456C358.099 176.128 358.003 177.448 356.779 178.672C355.915 179.536 354.763 179.992 353.539 179.992C352.315 179.992 351.163 179.536 350.299 178.672C349.075 177.448 348.979 176.128 348.979 172.456C348.979 168.784 349.075 167.464 350.299 166.24C351.163 165.376 352.315 164.92 353.539 164.92C354.763 164.92 355.915 165.376 356.779 166.24C358.003 167.464 358.099 168.784 358.099 172.456ZM375.603 181L371.475 173.104C373.875 172.696 375.411 171.04 375.411 168.496C375.411 165.52 373.299 163.912 370.515 163.912H364.011V181H365.307V173.128H370.011L374.091 181H375.603ZM374.115 168.52C374.115 170.872 372.531 171.976 370.347 171.976H365.307V165.064H370.347C372.531 165.064 374.115 166.168 374.115 168.52ZM391.377 181L387.249 173.104C389.649 172.696 391.185 171.04 391.185 168.496C391.185 165.52 389.073 163.912 386.289 163.912H379.785V181H381.081V173.128H385.785L389.865 181H391.377ZM389.889 168.52C389.889 170.872 388.305 171.976 386.121 171.976H381.081V165.064H386.121C388.305 165.064 389.889 166.168 389.889 168.52ZM404.534 163.912H403.142L398.894 172.552L394.55 163.912H393.158L398.198 173.92V181H399.494V173.92L404.534 163.912ZM409.433 163.912H408.113L408.185 176.392H409.361L409.433 163.912ZM409.577 181V179.392H407.969V181H409.577ZM432.248 168.832C432.248 165.712 430.04 163.912 427.088 163.912H420.824V181H422.12V173.752H427.088C430.04 173.752 432.248 171.952 432.248 168.832ZM430.952 168.832C430.952 171.4 429.296 172.6 426.944 172.6H422.12V165.064H426.944C429.296 165.064 430.952 166.264 430.952 168.832ZM446.217 181L439.929 163.912H438.777L432.489 181H433.881L435.369 176.848H443.337L444.825 181H446.217ZM442.929 175.696H435.777L439.353 165.64L442.929 175.696ZM460.036 175.048V172.264H454.156V173.416H458.74V174.952C458.74 176.416 458.452 177.424 457.708 178.336C456.82 179.416 455.5 179.992 454.156 179.992C452.932 179.992 451.78 179.536 450.916 178.672C449.692 177.448 449.596 176.128 449.596 172.456C449.596 168.784 449.692 167.464 450.916 166.24C451.78 165.376 452.932 164.92 454.156 164.92C456.46 164.92 458.188 166.408 458.692 168.76H459.988C459.46 165.736 457.156 163.768 454.156 163.768C452.548 163.768 451.012 164.392 449.884 165.52C448.324 167.08 448.3 168.592 448.3 172.456C448.3 176.32 448.324 177.832 449.884 179.392C451.012 180.52 452.548 181.144 454.156 181.144C455.884 181.144 457.516 180.424 458.644 179.176C459.652 178.096 460.036 176.824 460.036 175.048ZM474.973 181V179.848H465.901V172.96H473.629V171.808H465.901V165.064H474.973V163.912H464.605V181H474.973ZM497.522 181V163.912H496.226V178.72L486.362 163.912H485.066V181H486.362V166.144L496.226 181H497.522ZM513.848 172.456C513.848 168.592 513.824 167.08 512.264 165.52C511.136 164.392 509.6 163.768 507.992 163.768C506.384 163.768 504.848 164.392 503.72 165.52C502.16 167.08 502.136 168.592 502.136 172.456C502.136 176.32 502.16 177.832 503.72 179.392C504.848 180.52 506.384 181.144 507.992 181.144C509.6 181.144 511.136 180.52 512.264 179.392C513.824 177.832 513.848 176.32 513.848 172.456ZM512.552 172.456C512.552 176.128 512.456 177.448 511.232 178.672C510.368 179.536 509.216 179.992 507.992 179.992C506.768 179.992 505.616 179.536 504.752 178.672C503.528 177.448 503.432 176.128 503.432 172.456C503.432 168.784 503.528 167.464 504.752 166.24C505.616 165.376 506.768 164.92 507.992 164.92C509.216 164.92 510.368 165.376 511.232 166.24C512.456 167.464 512.552 168.784 512.552 172.456ZM527.571 165.064V163.912H516.075V165.064H521.163V181H522.459V165.064H527.571ZM547.418 165.064V163.912H537.05V181H538.346V173.248H546.074V172.096H538.346V165.064H547.418ZM561.45 172.456C561.45 168.592 561.426 167.08 559.866 165.52C558.738 164.392 557.202 163.768 555.594 163.768C553.986 163.768 552.45 164.392 551.322 165.52C549.762 167.08 549.738 168.592 549.738 172.456C549.738 176.32 549.762 177.832 551.322 179.392C552.45 180.52 553.986 181.144 555.594 181.144C557.202 181.144 558.738 180.52 559.866 179.392C561.426 177.832 561.45 176.32 561.45 172.456ZM560.154 172.456C560.154 176.128 560.058 177.448 558.834 178.672C557.97 179.536 556.818 179.992 555.594 179.992C554.37 179.992 553.218 179.536 552.354 178.672C551.13 177.448 551.034 176.128 551.034 172.456C551.034 168.784 551.13 167.464 552.354 166.24C553.218 165.376 554.37 164.92 555.594 164.92C556.818 164.92 557.97 165.376 558.834 166.24C560.058 167.464 560.154 168.784 560.154 172.456ZM577.538 175.456V163.912H576.242V175.288C576.242 178.12 574.418 179.992 571.682 179.992C568.946 179.992 567.122 178.12 567.122 175.288V163.912H565.826V175.456C565.826 178.792 568.25 181.144 571.682 181.144C575.114 181.144 577.538 178.792 577.538 175.456ZM595.045 181V163.912H593.749V178.72L583.885 163.912H582.589V181H583.885V166.144L593.749 181H595.045ZM611.995 172.216C611.995 169.912 612.067 167.2 610.339 165.472C609.331 164.464 607.843 163.912 606.067 163.912H600.331V181H606.067C607.843 181 609.331 180.448 610.339 179.44C612.067 177.712 611.995 174.52 611.995 172.216ZM610.699 172.216C610.699 174.112 610.795 177.136 609.427 178.528C608.443 179.536 607.123 179.848 605.755 179.848H601.627V165.064H605.755C607.123 165.064 608.443 165.376 609.427 166.384C610.795 167.776 610.699 170.32 610.699 172.216Z" fill="black"/>
<defs>
<clipPath id="clip0_9_28">
<rect width="275" height="207" fill="white" transform="translate(0 89.5)"/>
</clipPath>
</defs>
</svg>
